<svg xmlns="http://www.w3.org/2000/svg" width="38.201" height="39.607" viewBox="0 0 38.201 39.607">
  <g id="_13" data-name="13" transform="translate(-353 -2840)">
    <g id="heads-hairs-and-scissors" transform="translate(352.444 2840)">
      <g id="Group_24" data-name="Group 24" transform="translate(0.556 0)">
        <path id="Path_134" data-name="Path 134" d="M12.094,20.932a3.069,3.069,0,0,0-.1-2.154,2.223,2.223,0,0,0-1.366-1.253,2.022,2.022,0,0,0-.589-.09A2.779,2.779,0,0,0,7.5,19.525a3.069,3.069,0,0,0,.1,2.151A2.213,2.213,0,0,0,8.968,22.93a2.067,2.067,0,0,0,.589.091A2.781,2.781,0,0,0,12.094,20.932Z" transform="translate(1.234 4.591)" fill="#666"/>
        <path id="Path_135" data-name="Path 135" d="M21.644,22.511a2.091,2.091,0,0,0,.565-.076,2.214,2.214,0,0,0,1.4-1.217,2.762,2.762,0,0,0,.2-.591,20.516,20.516,0,0,1-4.732-.62,3.178,3.178,0,0,0,.064.341A2.777,2.777,0,0,0,21.644,22.511Z" transform="translate(4.32 5.268)" fill="#666"/>
        <path id="Path_136" data-name="Path 136" d="M34.452,15.2S33.407,3.3,25.044.965L20.63,13.773c-.339-.694-.772-1.57-1.256-2.541,2.2-4.29,5.187-10.05,5.187-10.05l.3-.264C24.706.879,24.553.834,24.392.8a18.624,18.624,0,0,0-10.487.563c1.036,2.052,7,13.871,7.176,14.422a11.429,11.429,0,0,0,4.563,4.707,16.652,16.652,0,0,0,.642-7.262c-.225-1.31-.786-8.793.56-10.1,3.593,2.956,3.218,8.755,3.218,9.016,0,.167,3.031,3.63,2.957,4.153.182.982-1.347,1.236-1.871,1.909C32.2,20,29.5,20.677,29.5,20.677s2.618,1.16.225,2.467c.683,1.425.8,1.837.183,2.264a4.075,4.075,0,0,1-.392,1.579,3.346,3.346,0,0,1-2.129,1.824,3.253,3.253,0,0,1-.882.117,3.924,3.924,0,0,1-3.6-3.007c-.018-.068-.03-.136-.047-.208l-.236-.744c-.441-.109-.714-.181-.714-.181a3.511,3.511,0,0,0,.577-.259l-2.879-9.114-1.858-.94L13.5,1.525A10.933,10.933,0,0,0,10.63,3.158S8.871-.07,7.037,0A10.8,10.8,0,0,1,9.493,3.285c.014.042-2.7-2.9-4.5-2.484A6.117,6.117,0,0,1,8.173,3.439S5.41,1.409,3.263,1.881A14.961,14.961,0,0,1,7.052,3.8S3.783,2.475,2,3.691a13.117,13.117,0,0,1,3.83.561s-4.106-.112-4.7,1.374a11.63,11.63,0,0,1,4.194-.393S.715,6.1.556,7.787a10.321,10.321,0,0,1,3.8-1.459S.921,8.46.682,10.032A14.249,14.249,0,0,1,4.625,7S2.829,12.258,3,12.446a2.317,2.317,0,0,1,.9,1.29c.131.749-3.422,4.883-3.031,5.555s2.188,1.068,2.188,1.068-.71,1.607-.448,2.02a.742.742,0,0,0,.617.394.383.383,0,0,0-.28.56c.206.448,1.175,1.079,1.347,1.237-1.35,3.784.1,4.025,5.634,3.852a3.4,3.4,0,0,1-1.578-1.679,4.215,4.215,0,0,1-.155-2.96,4.058,4.058,0,0,1,2.877-2.817,12.065,12.065,0,0,0,6.025-5.185c.028-.078.178-.394.419-.872l1.071.542-.005,0L15,25.868a.131.131,0,0,0-.008-.025c0,.008,0,.014-.006.023a4.165,4.165,0,0,1-2.217,2.595c2.323.08,4.26.1,4.26.1l2.89.14s1.237,6.468-2.609,8.867c5.191-.307,5.3-7.745,5.3-7.745s.112,5.893-1.88,8.25c3.283-.982,3.113-7.185,3.113-7.185s2.078,7.745-5.527,8.67c12.628.869,12.738-9.289,12.738-9.289a3.111,3.111,0,0,0,2.664.954C30.968,28.976,31.5,22.8,31.5,22.8s.5,7.351,3.256,7.493a4.783,4.783,0,0,1-.807-1.767c4.563-.766,2.433-7.857,2.433-7.857s1.88.672,1.853,3.507C40.54,22.154,34.452,15.2,34.452,15.2Zm-.5,13.318c-.881-3.266-.509-8.8-.509-8.8S37.506,23.888,33.952,28.513Z" transform="translate(-0.556 0)" fill="#666"/>
        <circle id="Ellipse_8" data-name="Ellipse 8" cx="0.606" cy="0.606" r="0.606" transform="translate(17.656 13.084)" fill="#666"/>
      </g>
    </g>
  </g>
</svg>
