<svg xmlns="http://www.w3.org/2000/svg" width="41.105" height="39" viewBox="0 0 41.105 39">
  <g id="_15" data-name="15" transform="translate(-823.999 -2838)">
    <g id="constructor-with-hat-and-a-gear" transform="translate(824 2828.647)">
      <path id="Path_214" data-name="Path 214" d="M27.7,45.809c-.2-.124-.81-.281-.979-.411l-3.46,2.273L20.45,44.858,22.869,41a3.582,3.582,0,0,1-.152-.366l-4.456-.793.017-4.338,3.252-.563-1.62-1.581a7.529,7.529,0,0,1-4.771,1.755h-.011a7.493,7.493,0,0,1-4.54-1.575h0L8.939,35.119H5.715A4.422,4.422,0,0,0,2.16,36.678c-2.65,3.061-2.206,9.654-2,11.674H28.186ZM8.427,26.962a8.21,8.21,0,0,0,2.11,4.675,6.658,6.658,0,0,0,.748.692,6.584,6.584,0,0,0,1.069.7,5.927,5.927,0,0,0,5.559,0,6.584,6.584,0,0,0,1.069-.7,7.334,7.334,0,0,0,.754-.7,8.191,8.191,0,0,0,2.1-4.647c.022,0,.039.006.062.006a2.3,2.3,0,0,0,2.121-2.436,2.555,2.555,0,0,0-.883-1.975H7.488A2.555,2.555,0,0,0,6.6,24.554,2.339,2.339,0,0,0,8.427,26.962ZM41.1,38.579V36.706L37.2,36a7.036,7.036,0,0,0-.838-2.02l2.267-3.241-1.328-1.328-3.252,2.262a6.929,6.929,0,0,0-2.02-.833l-.692-3.893H29.469l-.7,3.9a7.032,7.032,0,0,0-2.02.838L23.505,29.42l-1.328,1.328L24.439,34a6.929,6.929,0,0,0-.833,2.02l-3.893.692v1.873l3.9.7a7.036,7.036,0,0,0,.838,2.02l-2.273,3.241,1.328,1.328,3.252-2.262a6.93,6.93,0,0,0,2.02.833l.692,3.893h1.873l.7-3.9a7.033,7.033,0,0,0,2.02-.838l3.241,2.267,1.328-1.328-2.262-3.252a6.926,6.926,0,0,0,.833-2.02ZM30.4,40.537a2.892,2.892,0,1,1,2.892-2.892A2.891,2.891,0,0,1,30.4,40.537ZM12.163,12.143a10.221,10.221,0,0,0-4.883,5.9l-.158.5H5.839v2.813H24.788V18.534h-1.26l-.158-.5a10.179,10.179,0,0,0-4.883-5.874v6.121a1.882,1.882,0,0,1-.18.7,1.769,1.769,0,0,1-1.553.968H13.918a1.765,1.765,0,0,1-1.733-1.508.923.923,0,0,1-.023-.248V12.143Zm1.755,7.066h2.813a1.036,1.036,0,0,0,.923-.563.964.964,0,0,0,.135-.5v-7.4a1.752,1.752,0,0,0-.09-.5,1.423,1.423,0,0,0-1.305-.9H13.918a1.03,1.03,0,0,0-1.035.923c0,.045-.023.09-.023.135v7.741a1.132,1.132,0,0,0,.18.608A1.1,1.1,0,0,0,13.918,19.209Z" transform="translate(0 0)" fill="#666"/>
    </g>
  </g>
</svg>
