<svg xmlns="http://www.w3.org/2000/svg" width="44.395" height="39.607" viewBox="0 0 44.395 39.607">
  <g id="_17" data-name="17" transform="translate(-1285 -2838)">
    <g id="worker-of-construction-working-with-a-shovel-beside-material-pile" transform="translate(1285 2808.815)">
      <g id="iconos_7_" transform="translate(0 29.185)">
        <path id="Path_209" data-name="Path 209" d="M300.726,312.025l-2.988,4.632-1.979-.8-6.9,12.577h8.1l3.549-4.706h3.048l3.261,4.706h2.746l-6.285-15.718Z" transform="translate(-265.174 -288.829)" fill="#666"/>
        <path id="Path_210" data-name="Path 210" d="M404.821,464.317h-2.246l-2.958,3.921h7.922Z" transform="translate(-366.843 -428.631)" fill="#666"/>
        <path id="Path_211" data-name="Path 211" d="M3.148,130.05l-2.33,7.528H4.053l2.588-7.5.739-5.835H9.845l2.218,6.047-1.355,7.286h3.139l1.543-8.252-1.543-4.349-.561-1.968,8.493,4.812-1.594,2.767,3.7,2.132,3.915-6.8-3.7-2.132-1.538,2.67-9.889-5.6-.533-1.873.97-3.93.418,3.592.671,1.743,2.649,1.549-1.1-3.9-.849-7.5-2.745-.113-.482-1.327A4.182,4.182,0,0,0,15,105.212l-8.263-1.1A4.171,4.171,0,0,0,8.5,108.471l-.073-.008-1.654,1.39-2.119-.178L0,113.743v6.19l3.7.913Zm-.8-12.366v-1.848L3.921,114.4v3.634Z" transform="translate(0 -97.971)" fill="#666"/>
        <path id="Path_212" data-name="Path 212" d="M80.756,35.63l1.256.166c.167-3.732-1.455-6.174-4.391-6.563a5.4,5.4,0,0,0-.715-.048c-2.6,0-4.493,1.9-5.234,5.24l1.094.145Z" transform="translate(-65.793 -29.185)" fill="#666"/>
      </g>
    </g>
  </g>
</svg>
