<svg id="_2" data-name="2" xmlns="http://www.w3.org/2000/svg" width="29.121" height="39.607" viewBox="0 0 29.121 39.607">
  <g id="Group_22" data-name="Group 22" transform="translate(0)">
    <path id="Path_93" data-name="Path 93" d="M87.126,198.474c0-4.794-2.772-10.017-2.772-10.017-1.074-2.151-2.292-4.59-4.9-6.027-.048-.027-.3-.149-.379-.188l-2.831-1.3-1.36-1.147L72.7,181.966l.9,6.485-1.027.283-1.027-.283.9-6.485-2.186-2.174-1.36,1.147-2.831,1.3c-.082.039-.331.161-.379.188-2.607,1.438-3.825,3.876-4.9,6.027a32.1,32.1,0,0,0-2.772,10.017c0,.056-.006.113-.006.17a2.933,2.933,0,0,0,3.016,2.835,2.4,2.4,0,0,0,.362-.028,7.066,7.066,0,0,0,2.213-.736l8.685,2.4c.022.006.044.01.066.015l.01,0,.048.009a1.077,1.077,0,0,0,.16.013,1.019,1.019,0,0,0,.154-.012.587.587,0,0,0,.062-.011c.023,0,.046-.009.068-.015l8.685-2.4a7.065,7.065,0,0,0,2.213.736,2.372,2.372,0,0,0,.362.028,2.933,2.933,0,0,0,3.016-2.835C87.132,198.587,87.126,198.531,87.126,198.474ZM71.5,200.68l-5.664-1.562a2.381,2.381,0,0,0-1.212-3.769v-6.592l6.876,1.9V200.68Zm9.011-5.331a2.381,2.381,0,0,0-1.212,3.769l-5.664,1.562V190.653l6.876-1.9v6.592Z" transform="translate(-58.011 -163.541)" fill="#666"/>
    <path id="Path_94" data-name="Path 94" d="M150.88,16.251c2.867,0,6.713-3.582,6.778-9.588C157.7,2.494,155.715,0,150.88,0s-6.821,2.494-6.778,6.662C144.167,12.669,147.524,16.251,150.88,16.251Zm-1.363-7.914c3.506.373,6.562-4.529,6.512-.14-.03,2.628-2.467,6.6-5.149,6.6-2.815,0-4.757-3.3-5.149-6.594C145.306,4.623,151.868,5.438,149.517,8.336Z" transform="translate(-136.319)" fill="#666"/>
  </g>
</svg>
