<svg xmlns="http://www.w3.org/2000/svg" width="39.608" height="39.607" viewBox="0 0 39.608 39.607">
  <g id="_4" data-name="4" transform="translate(-1057 -2654)">
    <g id="_4-2" data-name="4">
      <g id="computer" transform="translate(1054.001 2651)">
        <path id="Path_137" data-name="Path 137" d="M23.049,17A2.049,2.049,0,1,0,25.1,19.049,2.051,2.051,0,0,0,23.049,17Z" transform="translate(-5.708 -4.44)" fill="#666"/>
        <path id="Path_138" data-name="Path 138" d="M31.683,41.365A.683.683,0,1,0,31,40.682.683.683,0,0,0,31.683,41.365Z" transform="translate(-8.879 -11.733)" fill="#666"/>
        <path id="Path_139" data-name="Path 139" d="M40.161,21.144a3.317,3.317,0,0,0,2.551.642,3.387,3.387,0,0,0,2.6-2.232.683.683,0,0,1,.645-.456h5.7V17.732h-5.7a.684.684,0,0,1-.645-.458A3.352,3.352,0,0,0,42.171,15a3.3,3.3,0,0,0-2.006.686,2.731,2.731,0,0,1,0,5.458Z" transform="translate(-11.785 -3.805)" fill="#666"/>
        <path id="Path_140" data-name="Path 140" d="M27.052,48a6.03,6.03,0,0,1,.283,4.78h6.192A6.03,6.03,0,0,1,33.809,48Z" transform="translate(-7.628 -14.27)" fill="#666"/>
        <path id="Path_141" data-name="Path 141" d="M35.071,57H20.049A2.051,2.051,0,0,0,18,59.049v.683H37.12v-.683A2.051,2.051,0,0,0,35.071,57Z" transform="translate(-4.757 -17.124)" fill="#666"/>
        <path id="Path_142" data-name="Path 142" d="M3,40.78a2.052,2.052,0,0,0,2.049,2.049H40.558a2.052,2.052,0,0,0,2.049-2.049V36H3Zm19.8-3.414a2.049,2.049,0,1,1-2.049,2.049A2.051,2.051,0,0,1,22.8,37.366Z" transform="translate(0 -10.465)" fill="#666"/>
        <path id="Path_143" data-name="Path 143" d="M41.144,7H7V25.437H41.144V17.926H35.9A4.68,4.68,0,0,1,32.411,20.6a4.8,4.8,0,0,1-.755.06,4.675,4.675,0,0,1-4.081-2.394.683.683,0,0,1,.594-1.021h1.366a1.366,1.366,0,0,0,0-2.732H28.169a.684.684,0,0,1-.595-1.021,4.674,4.674,0,0,1,8.331.338h5.238ZM26.12,17.243a.682.682,0,0,1-.683.683h-.944l-.274.548,1.018,1.018a.684.684,0,0,1,0,.966l-2.049,2.049a.683.683,0,0,1-.966,0l-1.018-1.018-.548.274v.944a.682.682,0,0,1-.683.683H17.243a.682.682,0,0,1-.683-.683v-.944l-.548-.274-1.017,1.018a.683.683,0,0,1-.966,0L11.98,20.458a.684.684,0,0,1,0-.966L13,18.474l-.274-.548H11.78a.682.682,0,0,1-.683-.683V14.511a.682.682,0,0,1,.683-.683h.944L13,13.28,11.98,12.262a.684.684,0,0,1,0-.966l2.049-2.049a.684.684,0,0,1,.966,0l1.017,1.018.548-.274V9.049a.682.682,0,0,1,.683-.683h2.731a.682.682,0,0,1,.683.683v.944l.548.274,1.018-1.018a.684.684,0,0,1,.966,0L25.238,11.3a.684.684,0,0,1,0,.966L24.22,13.281l.274.548h.944a.682.682,0,0,1,.683.683Z" transform="translate(-1.269 -1.268)" fill="#666"/>
        <path id="Path_144" data-name="Path 144" d="M40.558,3H5.048A2.052,2.052,0,0,0,3,5.049v19.12H4.365V5.732A1.367,1.367,0,0,1,5.731,4.366H39.875a1.367,1.367,0,0,1,1.366,1.366V24.169h1.366V5.049A2.052,2.052,0,0,0,40.558,3Z" transform="translate(0)" fill="#666"/>
        <path id="Path_145" data-name="Path 145" d="M26,16.085l-.683-1.366a.682.682,0,0,1,.128-.788l.883-.882-1.083-1.083-.882.883a.679.679,0,0,1-.788.128l-1.366-.683a.683.683,0,0,1-.378-.611V11H20.463v.683a.683.683,0,0,1-.378.611l-1.366.683a.679.679,0,0,1-.788-.128l-.882-.883-1.083,1.083.883.882a.683.683,0,0,1,.128.788l-.683,1.366a.683.683,0,0,1-.611.378H15v1.366h.683a.683.683,0,0,1,.611.378l.683,1.366a.682.682,0,0,1-.128.788l-.883.882,1.083,1.083.882-.883a.685.685,0,0,1,.788-.128L20.085,22a.683.683,0,0,1,.378.61v.683h1.365v-.683a.683.683,0,0,1,.378-.61l1.366-.683a.684.684,0,0,1,.788.128l.882.883,1.083-1.083-.883-.882a.683.683,0,0,1-.128-.788L26,18.207a.683.683,0,0,1,.61-.378h.683V16.463h-.683A.683.683,0,0,1,26,16.085ZM21.146,20.56a3.414,3.414,0,1,1,3.414-3.414A3.418,3.418,0,0,1,21.146,20.56Z" transform="translate(-3.806 -2.537)" fill="#666"/>
      </g>
    </g>
  </g>
</svg>
