<svg xmlns="http://www.w3.org/2000/svg" width="39.227" height="39.607" viewBox="0 0 39.227 39.607">
  <g id="_8" data-name="8" transform="translate(-592 -2840)">
    <g id="music-teacher" transform="translate(591.879 2840)">
      <path id="Path_115" data-name="Path 115" d="M16.247.338a1.521,1.521,0,0,0-.373.617l.091.035A1.652,1.652,0,0,1,16.247.338Z" transform="translate(9.038 0.194)" fill="#666"/>
      <path id="Path_116" data-name="Path 116" d="M10.52,26.355H33.381V22.891H15.466A11.682,11.682,0,0,1,10.52,26.355Z" transform="translate(5.966 13.133)" fill="#666"/>
      <path id="Path_117" data-name="Path 117" d="M31.27,23.422V19.955H15.709A11.517,11.517,0,0,1,14.2,23.422Z" transform="translate(8.077 11.449)" fill="#666"/>
      <path id="Path_118" data-name="Path 118" d="M17.836,22.834a11.779,11.779,0,0,1-.105,1.482c6.284,0,13.142-.014,13.366-.014.408,0,.442-1.393.442-1.393a16.8,16.8,0,0,0-1.7-8.685c-.669-1.484-4.742-2.768-4.742-2.768C22.922,10.694,22.9,9.929,22.9,9.929c-4.273,8.421-7.516.02-7.516.02-.238.916-3.125,1.956-4.246,2.329A11.678,11.678,0,0,1,17.836,22.834Z" transform="translate(6.324 5.696)" fill="#666"/>
      <path id="Path_119" data-name="Path 119" d="M13.389,11.18c.327,2.7,2.656,5.508,4.768,5.508,2.43,0,4.74-2.946,5.1-5.508a1.265,1.265,0,0,0,.441-.87s.521-1.857-.167-1.659c.241-.718,1.036-3.506-.5-5.237a4.9,4.9,0,0,0-2.475-1.5c-.06-.05-.123-.105-.194-.154,0,0,.036.042.093.126-.1-.033-.2-.055-.308-.083-.094-.1-.2-.2-.323-.31a2.69,2.69,0,0,1,.233.293c-.049-.011-.091-.024-.138-.033a2.836,2.836,0,0,0-.3-.37s.052.1.116.249c-.321-.233-.971-.787-.971-1.4a1.786,1.786,0,0,0-.641.535,1.612,1.612,0,0,1,.5-.762,1.763,1.763,0,0,0-.515.43,1.613,1.613,0,0,0-.773.938L17.2,1.3A2.162,2.162,0,0,1,17.5.829a2.087,2.087,0,0,0-.356.436l-.28-.142A2.262,2.262,0,0,1,17.2.648a2.532,2.532,0,0,0-.313.313c.047-.184.039-.4-.527.233a6.431,6.431,0,0,0-3.3,3.4s-.436,1.039.142,4.093c-.82-.389-.261,1.618-.261,1.618A1.244,1.244,0,0,0,13.389,11.18ZM18.036.532a1.653,1.653,0,0,0-.283.652l-.091-.035A1.543,1.543,0,0,1,18.036.532Z" transform="translate(7.249)" fill="#666"/>
      <path id="Path_120" data-name="Path 120" d="M22.277,22.167A11.078,11.078,0,1,0,11.2,33.245,11.077,11.077,0,0,0,22.277,22.167ZM7.307,28.6c-.279-1.12.677-2.326,2.139-2.689a3.218,3.218,0,0,1,1.84.058V13.572a.815.815,0,0,1,.792-.629s-.009.618,3.753,3.247a4.774,4.774,0,0,1,1.923,3.522c-2.509-3.934-5.071-3.8-5.071-3.8l-.033,11.768h0A2.637,2.637,0,0,1,10.46,29.96C9,30.33,7.472,29.636,7.307,28.6Z" transform="translate(0 6.363)" fill="#666"/>
    </g>
  </g>
</svg>
