<svg xmlns="http://www.w3.org/2000/svg" width="44.406" height="39.607" viewBox="0 0 44.406 39.607">
  <g id="_9" data-name="9" transform="translate(-822 -2838)">
    <g id="Group_3442" data-name="Group 3442">
      <g id="rent-hanging-signal" transform="translate(822 2836.253)">
        <path id="Path_213" data-name="Path 213" d="M39.592,18H34.066L27.616,9.234a5.593,5.593,0,0,0,.308-1.762,5.724,5.724,0,0,0-11.448,0,5.6,5.6,0,0,0,.308,1.762L10.333,18H4.808A4.807,4.807,0,0,0,0,22.81V36.546a4.805,4.805,0,0,0,4.808,4.808H39.6a4.805,4.805,0,0,0,4.808-4.808V22.81A4.814,4.814,0,0,0,39.592,18ZM12.727,32a3,3,0,0,1,.332,1.57v1.712H11.274V33.886a6.311,6.311,0,0,0-.044-.8.987.987,0,0,0-.236-.529.873.873,0,0,0-.448-.276,3.186,3.186,0,0,0-.69-.059H7.375v3.059H5.6V26.036h4.547a3.241,3.241,0,0,1,2.433.7,3.047,3.047,0,0,1,.554,2.044,3.415,3.415,0,0,1-.408,2.025,1.976,1.976,0,0,1-1.231.6v.037A1.8,1.8,0,0,1,12.727,32ZM18.37,11.7a5.648,5.648,0,0,0,7.649,0L30.652,18H13.738Zm2.441,23.575H14.437V26.035h6.348v1.517H16.214V29.87h4.338v1.441H16.214v2.452h4.6v1.515Zm9.967,0h-2.97l-3.92-7.727h-.073l.1,3.834.048,3.9H22.174V26.036h2.948l3.97,7.73h.047l-.146-7.73H30.78v9.242Zm8.014-7.727H36.07v7.727H34.294V27.552h-2.7V26.035h7.2v1.517Zm-27.654.33a2.275,2.275,0,0,1,.21,1.185,2.247,2.247,0,0,1-.258,1.283,1.055,1.055,0,0,1-.448.279,2.576,2.576,0,0,1-.714.076H7.375V27.552h2.5a4.211,4.211,0,0,1,.788.059A.792.792,0,0,1,11.139,27.881Z" transform="translate(0 0)" fill="#666"/>
      </g>
    </g>
  </g>
</svg>
