<svg xmlns="http://www.w3.org/2000/svg" width="94.574" height="67.553" viewBox="0 0 94.574 67.553">
  <g id="Group_6657" data-name="Group 6657" transform="translate(-22466 -18869)">
    <g id="Group_6656" data-name="Group 6656">
      <g id="facetime-button" transform="translate(22466 18795.91)">
        <path id="Path_5468" data-name="Path 5468" d="M92.515,75.042a3.676,3.676,0,0,0-1.32-.264,3.138,3.138,0,0,0-2.375,1L67.552,97V88.29a15.226,15.226,0,0,0-15.2-15.2H15.2a14.642,14.642,0,0,0-10.74,4.459A14.642,14.642,0,0,0,0,88.29v37.154a14.64,14.64,0,0,0,4.459,10.739,14.641,14.641,0,0,0,10.74,4.46H52.353a15.226,15.226,0,0,0,15.2-15.2v-8.761l21.269,21.269a3.138,3.138,0,0,0,2.375,1,3.682,3.682,0,0,0,1.32-.263,3.154,3.154,0,0,0,2.058-3.114V78.157A3.156,3.156,0,0,0,92.515,75.042Z" fill="#e22424"/>
      </g>
      <g id="Group_6655" data-name="Group 6655" transform="translate(0 1.568)">
        <g id="Group_6653" data-name="Group 6653" transform="translate(22490 18901.039)">
          <line id="Line_1472" data-name="Line 1472" x2="27" transform="translate(0 -0.039)" fill="none" stroke="#fff" stroke-linecap="round" stroke-width="2"/>
        </g>
        <g id="Group_6654" data-name="Group 6654" transform="translate(22503.607 18887.432) rotate(90)">
          <line id="Line_1472-2" data-name="Line 1472" x2="26.568" fill="none" stroke="#fff" stroke-linecap="round" stroke-width="2"/>
        </g>
      </g>
    </g>
  </g>
</svg>
