<svg xmlns="http://www.w3.org/2000/svg" width="39.607" height="39.607" viewBox="0 0 39.607 39.607">
  <g id="_1" data-name="1" transform="translate(-360 -2654)">
    <g id="doctor" transform="translate(360 2654)">
      <path id="Path_68" data-name="Path 68" d="M114.865,117.325a8.558,8.558,0,0,0,16.868,0h.184a2.508,2.508,0,0,0,0-5.017h-.061v-.929a12.411,12.411,0,0,1-6.519-3.8,21,21,0,0,1-10.595,4.7l-.292.04a2.508,2.508,0,0,0,.231,5.006Z" transform="translate(-103.495 -99.261)" fill="#da1e37"/>
      <path id="Path_69" data-name="Path 69" d="M145.384,10.663c6.971-1.3,9.767-4.787,9.8-4.823l1.066-1.365.857,1.5a9.327,9.327,0,0,0,5.4,3.741V8.557a8.557,8.557,0,0,0-17.114,0Z" transform="translate(-134.137)" fill="#da1e37"/>
      <path id="Path_70" data-name="Path 70" d="M375.027,422h-.362a1.916,1.916,0,0,0-1.914,1.914v2.728h4.189v-2.728A1.916,1.916,0,0,0,375.027,422Z" transform="translate(-343.917 -389.355)" fill="#da1e37"/>
      <circle id="Ellipse_5" data-name="Ellipse 5" cx="1.547" cy="1.547" r="1.547" transform="translate(7.13 34.192)" fill="#da1e37"/>
      <path id="Path_71" data-name="Path 71" d="M225.575,350.683a10.854,10.854,0,0,1-5.569,0l2.784,3.905Z" transform="translate(-202.987 -323.555)" fill="#da1e37"/>
      <path id="Path_72" data-name="Path 72" d="M4.81,335.994a3.875,3.875,0,0,1,2.708-3.69v-6.875L4.35,326.915A7.592,7.592,0,0,0,0,333.761v6.1H8.678a3.872,3.872,0,0,1-3.868-3.868Z" transform="translate(0 -300.254)" fill="#da1e37"/>
      <path id="Path_73" data-name="Path 73" d="M417.994,326.914l-3.167-1.486v5.266a4.241,4.241,0,0,1,3.255,4.119v5.049h4.262v-6.1A7.592,7.592,0,0,0,417.994,326.914Z" transform="translate(-382.737 -300.253)" fill="#da1e37"/>
      <path id="Path_74" data-name="Path 74" d="M133.265,309.507v-6.354l-1.466-.688c-.293.367-8.5,11.633-8.5,11.633s-8.207-11.265-8.5-11.633l-1.466.688v7.964a3.868,3.868,0,0,1-1.16,7.558H130.01v-5.049A4.241,4.241,0,0,1,133.265,309.507Z" transform="translate(-103.495 -279.067)" fill="#da1e37"/>
    </g>
  </g>
</svg>
