<svg xmlns="http://www.w3.org/2000/svg" width="39.607" height="39.607" viewBox="0 0 39.607 39.607">
  <g id="_10" data-name="10" transform="translate(-1057 -2840)">
    <g id="movie-cinema-TV-watch-relax" transform="translate(1053 2836)">
      <path id="Path_127" data-name="Path 127" d="M17,40.707v.707h8.487v-.707A.707.707,0,0,0,24.78,40H17.707A.707.707,0,0,0,17,40.707Z" transform="translate(-3.805 -10.538)" fill="#666"/>
      <path id="Path_128" data-name="Path 128" d="M40.413,44H10.707a.707.707,0,0,0-.707.707V53.9H41.12V44.707A.707.707,0,0,0,40.413,44Z" transform="translate(-1.756 -11.709)" fill="#666"/>
      <path id="Path_129" data-name="Path 129" d="M35,40.707v.707h8.487v-.707A.707.707,0,0,0,42.78,40H35.707A.707.707,0,0,0,35,40.707Z" transform="translate(-9.074 -10.538)" fill="#666"/>
      <path id="Path_130" data-name="Path 130" d="M58.122,49H56v7.78h2.829V49.707A.707.707,0,0,0,58.122,49Z" transform="translate(-15.222 -13.173)" fill="#666"/>
      <circle id="Ellipse_6" data-name="Ellipse 6" cx="3.5" cy="3.5" r="3.5" transform="translate(13.607 21)" fill="#666"/>
      <circle id="Ellipse_7" data-name="Ellipse 7" cx="3.5" cy="3.5" r="3.5" transform="translate(26.607 21)" fill="#666"/>
      <path id="Path_131" data-name="Path 131" d="M4,49.707V56.78H6.829V49H4.707A.707.707,0,0,0,4,49.707Z" transform="translate(0 -13.173)" fill="#666"/>
      <path id="Path_132" data-name="Path 132" d="M29,18.816l6.2-3.1L29,12.62Z" transform="translate(-7.318 -2.523)" fill="#666"/>
      <path id="Path_133" data-name="Path 133" d="M42.9,4H4.707A.707.707,0,0,0,4,4.707v19.8a.707.707,0,0,0,.707.707h7.837a4.692,4.692,0,0,1-.057-.707,4.951,4.951,0,0,1,9.9,0,4.692,4.692,0,0,1-.057.707h2.942a4.692,4.692,0,0,1-.057-.707,4.951,4.951,0,1,1,9.9,0,4.692,4.692,0,0,1-.057.707H42.9a.707.707,0,0,0,.707-.707V4.707A.707.707,0,0,0,42.9,4ZM5.329,7.915,7.915,5.329l1,1L6.329,8.916Zm3.122,3.122-1-1,2.586-2.587,1,1ZM29.78,13.824l-8.487,4.244a.728.728,0,0,1-.318.078.717.717,0,0,1-.375-.106.707.707,0,0,1-.332-.6V8.951a.707.707,0,0,1,1.026-.629l8.487,4.244a.707.707,0,0,1,0,1.259ZM42.193,23.8H37.949V22.389h4.244Zm0-2.122H39.364V20.267h2.829Zm0-2.122H40.778V18.146h1.415Z" fill="#666"/>
    </g>
  </g>
</svg>
