<svg xmlns="http://www.w3.org/2000/svg" width="49.209" height="39" viewBox="0 0 49.209 39">
  <g id="_11" data-name="11" transform="translate(-1283 -2838)">
    <g id="megaphone" transform="translate(1283 2791.502)">
      <g id="Group_511" data-name="Group 511" transform="translate(0 46.498)">
        <g id="Group_510" data-name="Group 510" transform="translate(0 0)">
          <path id="Path_203" data-name="Path 203" d="M0,160.923a4.416,4.416,0,0,0,2.868,4.187v-7.972c0-.115.057-.287.057-.4A4.473,4.473,0,0,0,0,160.923Z" transform="translate(0 -144.634)" fill="#666"/>
          <path id="Path_204" data-name="Path 204" d="M81.7,284.735H74.19L77,294.944a3.556,3.556,0,0,0,3.441,2.638,3.613,3.613,0,0,0,2.925-1.434,3.326,3.326,0,0,0,.573-3.1Z" transform="translate(-66.046 -258.582)" fill="#666"/>
          <path id="Path_205" data-name="Path 205" d="M26.648,155.747h.057v-.057C26.705,155.747,26.705,155.747,26.648,155.747Z" transform="translate(-23.723 -143.703)" fill="#666"/>
          <path id="Path_206" data-name="Path 206" d="M397.523,148.9h-.459v10.323h.459a5.162,5.162,0,0,0,0-10.323Z" transform="translate(-353.476 -137.657)" fill="#666"/>
          <path id="Path_207" data-name="Path 207" d="M41.8,131.556V139.7a3.9,3.9,0,0,0,3.9,3.785H56.137V128H45.7A3.729,3.729,0,0,0,41.8,131.556Z" transform="translate(-37.21 -119.053)" fill="#666"/>
          <path id="Path_208" data-name="Path 208" d="M188.084,71.16l21.22,8.488V46.5l-21.22,8.488Z" transform="translate(-167.437 -46.498)" fill="#666"/>
        </g>
      </g>
    </g>
  </g>
</svg>
