<svg xmlns="http://www.w3.org/2000/svg" width="30.17" height="39.607" viewBox="0 0 30.17 39.607">
  <g id="_12" data-name="12" transform="translate(-1525 -2840)">
    <g id="chef" transform="translate(1464 2840)">
      <path id="Path_111" data-name="Path 111" d="M218.893,361l-7.377,4.918a1.156,1.156,0,0,0-.517.965v5.8h18.566V366.8a5.809,5.809,0,0,0-5.8-5.8Zm-3.252,8.123h-2.321V366.8h2.321Z" transform="translate(-138.396 -333.074)" fill="#666"/>
      <path id="Path_112" data-name="Path 112" d="M70.283,366.883a3.473,3.473,0,0,1,1.55-2.9L76.313,361H66.8a5.809,5.809,0,0,0-5.8,5.8v5.879h9.283Z" transform="translate(0 -333.074)" fill="#666"/>
      <path id="Path_113" data-name="Path 113" d="M123.321,10.133V11.6h16.245V10.133A5.448,5.448,0,0,0,141.887,5.8c0-3.2-3.123-5.8-6.962-5.8-2.184,0-4.641,1.334-4.641,3.481h-2.321A5.137,5.137,0,0,1,129.251.14,8.3,8.3,0,0,0,127.962,0C124.123,0,121,2.6,121,5.8A5.448,5.448,0,0,0,123.321,10.133Z" transform="translate(-55.358)" fill="#666"/>
      <path id="Path_114" data-name="Path 114" d="M167.245,180H151v3.558a8.123,8.123,0,0,0,16.245,0Z" transform="translate(-83.038 -166.076)" fill="#666"/>
    </g>
  </g>
</svg>
