<svg xmlns="http://www.w3.org/2000/svg" width="39.607" height="39.607" viewBox="0 0 39.607 39.607">
  <g id="_14" data-name="14" transform="translate(-592 -2840)">
    <g id="housekeeping" transform="translate(592 2840)">
      <path id="Path_83" data-name="Path 83" d="M388.747,136v19.887a4.44,4.44,0,0,0-2.7,2.16h7.728a4.47,4.47,0,0,0-2.7-2.159V136Z" transform="translate(-356.179 -125.479)" fill="#666"/>
      <path id="Path_84" data-name="Path 84" d="M105.87,6.962l2.241-4.484-1.428-.337a12.94,12.94,0,0,1-2.564-.986,7.685,7.685,0,0,0-8.114,0,12.838,12.838,0,0,1-2.553.981l-1.428.337,2.241,4.484Z" transform="translate(-84.906)" fill="#666"/>
      <path id="Path_85" data-name="Path 85" d="M362.16,451,361,455.719h11.681L371.444,451Z" transform="translate(-333.074 -416.111)" fill="#666"/>
      <path id="Path_86" data-name="Path 86" d="M228.192,368.059v-4.128l-2.019-.311-2.828,4.439Z" transform="translate(-206.067 -335.491)" fill="#666"/>
      <path id="Path_87" data-name="Path 87" d="M106,451h13.924v4.719H106Z" transform="translate(-97.8 -416.111)" fill="#666"/>
      <path id="Path_88" data-name="Path 88" d="M106,368.556h4.856l-2.78-4.4-2.076.4Z" transform="translate(-97.8 -335.988)" fill="#666"/>
      <path id="Path_89" data-name="Path 89" d="M119.924,183.813a2.3,2.3,0,0,0-1.789-2.262l-.425-.1-.384.207c-.851.459-4.1,1.969-10.184,2.136l-1.142.032v2.3a6.908,6.908,0,0,0,3.481,6.014v1.318l3.485,5.513,3.477-5.458v-1.357a6.908,6.908,0,0,0,3.481-6.03Z" transform="translate(-97.8 -167.417)" fill="#666"/>
      <path id="Path_90" data-name="Path 90" d="M5.879,375.141l-2.245.419A4.616,4.616,0,0,0,0,380.091v5.637H5.879Z" transform="translate(0 -346.121)" fill="#666"/>
      <path id="Path_91" data-name="Path 91" d="M317.947,372.568l-1.947-.3v10.809h1.089l1.617-6.547a6.766,6.766,0,0,1,1.517-2.857A4.672,4.672,0,0,0,317.947,372.568Z" transform="translate(-291.555 -343.47)" fill="#666"/>
      <path id="Path_92" data-name="Path 92" d="M11.619,75.32v3.367a4.671,4.671,0,0,1-.7,2.666l-.929.7.7.928a6.15,6.15,0,0,0,4.826,2.785A5.318,5.318,0,0,0,17,85.538a9.285,9.285,0,0,1-1.9-5.577V75.4l3.4-.1c5.717-.156,8.624-1.576,9.148-1.86l1.152-.622,1.277.293a4.6,4.6,0,0,1,3.591,4.524V79.96a9.254,9.254,0,0,1-1.88,5.582,5.153,5.153,0,0,0,1.719.213,6.206,6.206,0,0,0,4.57-2.779l.732-.858-.887-.7a4.194,4.194,0,0,1-.773-2.689V73.337a8.93,8.93,0,0,0-3.587-6.693l-1.94,3.882H17.147l-2.073-4.148a11.382,11.382,0,0,0-3.454,8.942Z" transform="translate(-9.221 -61.243)" fill="#666"/>
    </g>
  </g>
</svg>
