<svg xmlns="http://www.w3.org/2000/svg" width="44.571" height="39" viewBox="0 0 44.571 39">
  <g id="_16" data-name="16" transform="translate(-1054 -2838)">
    <g id="store" transform="translate(1054 2806)">
      <g id="Group_533" data-name="Group 533" transform="translate(0 32)">
        <g id="Group_532" data-name="Group 532" transform="translate(0 0)">
          <path id="Path_225" data-name="Path 225" d="M44.53,44.2l-2.521-10.09A2.784,2.784,0,0,0,39.306,32H5.268a2.789,2.789,0,0,0-2.7,2.109L.042,44.2A1.363,1.363,0,0,0,0,44.536,6.8,6.8,0,0,0,6.616,51.5a6.5,6.5,0,0,0,5.223-2.694,6.411,6.411,0,0,0,10.446,0,6.411,6.411,0,0,0,10.446,0A6.5,6.5,0,0,0,37.955,51.5a6.8,6.8,0,0,0,6.616-6.964A1.363,1.363,0,0,0,44.53,44.2Z" transform="translate(0 -32)" fill="#666"/>
        </g>
      </g>
      <g id="Group_535" data-name="Group 535" transform="translate(2.786 52.648)">
        <g id="Group_534" data-name="Group 534" transform="translate(0 0)">
          <path id="Path_226" data-name="Path 226" d="M67.17,270.822a9.114,9.114,0,0,1-5.223-1.638,9.374,9.374,0,0,1-10.446,0,9.374,9.374,0,0,1-10.446,0,9.044,9.044,0,0,1-9.054.772v14.795a2.787,2.787,0,0,0,2.786,2.786H45.929V276.393H57.071v11.143H68.214A2.787,2.787,0,0,0,71,284.751V269.956A9.038,9.038,0,0,1,67.17,270.822Z" transform="translate(-32 -269.184)" fill="#666"/>
        </g>
      </g>
    </g>
  </g>
</svg>
