<svg xmlns="http://www.w3.org/2000/svg" width="39.607" height="39.607" viewBox="0 0 39.607 39.607">
  <g id="_3" data-name="3" transform="translate(-825 -2654)">
    <g id="surface1" transform="translate(825 2654)">
      <path id="Path_121" data-name="Path 121" d="M1.16,399.438H22.2a1.16,1.16,0,0,0,1.16-1.16V397.04a2.321,2.321,0,0,0-2.321-2.321v-1.387A3.335,3.335,0,0,0,17.71,390H5.652a3.335,3.335,0,0,0-3.332,3.332v1.387A2.321,2.321,0,0,0,0,397.04v1.238A1.161,1.161,0,0,0,1.16,399.438Zm0,0" transform="translate(0 -359.831)" fill="#666"/>
      <path id="Path_122" data-name="Path 122" d="M98.868,175.475a2.321,2.321,0,0,0,3.707-2.794l-6.983-9.267a2.321,2.321,0,1,0-3.707,2.793Zm0,0" transform="translate(-84.346 -149.92)" fill="#666"/>
      <path id="Path_123" data-name="Path 123" d="M314.5,12.984a2.321,2.321,0,0,0,3.707-2.793L311.224.924a2.321,2.321,0,1,0-3.707,2.793Zm0,0" transform="translate(-283.297 0)" fill="#666"/>
      <path id="Path_124" data-name="Path 124" d="M175.538,71.683a12.585,12.585,0,0,0,3.808-4.587L171.22,56.313a12.957,12.957,0,0,0-9.267,6.983l8.126,10.784A12.587,12.587,0,0,0,175.538,71.683Zm0,0" transform="translate(-149.425 -51.957)" fill="#666"/>
      <path id="Path_125" data-name="Path 125" d="M333.859,258.906a13.995,13.995,0,0,1-3.707,2.793l1.513,2.008,3.707-2.793Zm0,0" transform="translate(-304.612 -238.878)" fill="#666"/>
      <path id="Path_126" data-name="Path 126" d="M371.473,308.824l-3.707,2.793,6.983,9.267a2.321,2.321,0,1,0,3.707-2.793Zm0,0" transform="translate(-339.316 -284.934)" fill="#666"/>
    </g>
  </g>
</svg>
