<svg xmlns="http://www.w3.org/2000/svg" width="32.464" height="39.607" viewBox="0 0 32.464 39.607">
  <g id="_5" data-name="5" transform="translate(-1292 -2654)">
    <g id="builder" transform="translate(1282 2650)">
      <path id="Path_95" data-name="Path 95" d="M52.941,39.341a1,1,0,0,0-.424-.141c-.141,0-.212.071-.354.071L47.354,42.1a.743.743,0,0,0-.354.637v3.395a.668.668,0,0,0,.707.707H50.89a.769.769,0,0,0,.707-.5l.424-1.485v-.141l1.273-4.668A.718.718,0,0,0,52.941,39.341Z" transform="translate(-10.831 -10.304)" fill="#666"/>
      <path id="Path_96" data-name="Path 96" d="M41.385,54.649a.642.642,0,0,0-.212-.5l-.141-.141a.684.684,0,0,0-.99,0l-2.829,2.829a.859.859,0,0,0,0,1.132.861.861,0,0,0,1.132,0l2.829-2.829a.642.642,0,0,0,.212-.5Z" transform="translate(-7.904 -14.578)" fill="#666"/>
      <path id="Path_97" data-name="Path 97" d="M20,54h7.78v1.415H20Z" transform="translate(-2.927 -14.636)" fill="#666"/>
      <path id="Path_98" data-name="Path 98" d="M33,54v1.415h2.546L36.961,54Z" transform="translate(-6.733 -14.636)" fill="#666"/>
      <path id="Path_99" data-name="Path 99" d="M20,58h7.78v1.415H20Z" transform="translate(-2.927 -15.807)" fill="#666"/>
      <path id="Path_100" data-name="Path 100" d="M34.485,58H33v1.415h1.556A2.389,2.389,0,0,1,34.485,58Z" transform="translate(-6.733 -15.807)" fill="#666"/>
      <path id="Path_101" data-name="Path 101" d="M47.063,51.883a2.178,2.178,0,0,1-.919-.212L44.8,53.015a2.03,2.03,0,0,1,.141,1.7h6.365V51.6a2,2,0,0,1-1.061.283Z" transform="translate(-10.187 -13.934)" fill="#666"/>
      <path id="Path_102" data-name="Path 102" d="M33,45.707v1.7h5.658a2.03,2.03,0,0,1,1.7.141L41.7,46.2a2.178,2.178,0,0,1-.212-.919V41.817a2.111,2.111,0,0,1,1.061-1.839l2.051-1.2c-.212-.141-.5-.212-.707-.354L38.658,36.3A12.344,12.344,0,0,1,33,45.707Z" transform="translate(-6.733 -9.455)" fill="#666"/>
      <path id="Path_103" data-name="Path 103" d="M30.009,38.356a7.906,7.906,0,0,1-4.527-1.344L25.2,36.8a10.834,10.834,0,0,0,.778,2.971h8.134A10.834,10.834,0,0,0,34.89,36.8l-.354.212A8.479,8.479,0,0,1,30.009,38.356Z" transform="translate(-4.449 -9.601)" fill="#666"/>
      <path id="Path_104" data-name="Path 104" d="M33.919,43H27.2a10.88,10.88,0,0,0,3.324,3.395A10.382,10.382,0,0,0,33.919,43Z" transform="translate(-5.035 -11.416)" fill="#666"/>
      <path id="Path_105" data-name="Path 105" d="M36.146,10.365a4.92,4.92,0,0,0-4.951-4.951V8.951H29.78V4.707a.707.707,0,0,0-1.415,0V8.951H26.951V5.415A4.92,4.92,0,0,0,22,10.365v.707H36.146Z" transform="translate(-3.513)" fill="#666"/>
      <path id="Path_106" data-name="Path 106" d="M20.707,17.415h15.56a.707.707,0,0,0,0-1.415H20.707a.707.707,0,0,0,0,1.415Z" transform="translate(-2.927 -3.513)" fill="#666"/>
      <path id="Path_107" data-name="Path 107" d="M19.88,36.5l-5.234,2.122a6.726,6.726,0,0,0-2.546,1.91,6.344,6.344,0,0,1,5.587,6.295v.707h7.78v-1.7A12.294,12.294,0,0,1,19.88,36.5Z" transform="translate(-0.615 -9.514)" fill="#666"/>
      <path id="Path_108" data-name="Path 108" d="M10.707,44h-.141A7.04,7.04,0,0,0,10,46.688v8.629h5.658V48.951A4.92,4.92,0,0,0,10.707,44Z" transform="translate(0 -11.709)" fill="#666"/>
      <path id="Path_109" data-name="Path 109" d="M41.4,59.415h8.912V58h-7.5Z" transform="translate(-9.192 -15.807)" fill="#666"/>
      <path id="Path_110" data-name="Path 110" d="M20.1,23.578l1.2.637v1.061a6.412,6.412,0,0,0,2.971,5.375l.354.212a6.983,6.983,0,0,0,7.568,0l.354-.212a6.321,6.321,0,0,0,2.971-5.375V24.214l1.2-.637a.87.87,0,0,0,.5-.778v-.637a.817.817,0,0,0-.849-.849h-.919V19.9H21.3v1.415h-.849a.817.817,0,0,0-.849.849V22.8a.87.87,0,0,0,.5.778Z" transform="translate(-2.81 -4.654)" fill="#666"/>
    </g>
  </g>
</svg>
