<svg xmlns="http://www.w3.org/2000/svg" width="34.811" height="39.607" viewBox="0 0 34.811 39.607">
  <g id="_6" data-name="6" transform="translate(-1523 -2654)">
    <g id="trainer" transform="translate(1492 2654)">
      <path id="Path_75" data-name="Path 75" d="M57.689,271H55.368v1.147a5.821,5.821,0,0,1-5.815,5.815H48.406a3.485,3.485,0,0,1,3.481,3.481v4.641a1.16,1.16,0,0,1-2.321,0v-1.36a3.481,3.481,0,1,1-1.16-6.763H47.258a5.821,5.821,0,0,1-5.815-5.815V271H39.123A8.132,8.132,0,0,0,31,279.123V282.6h8.123a1.16,1.16,0,0,1,1.16,1.16v5.879H56.528v-5.879a1.16,1.16,0,0,1,1.16-1.16h8.123v-3.481A8.132,8.132,0,0,0,57.689,271Z" transform="translate(0 -250.036)" fill="#666"/>
      <path id="Path_76" data-name="Path 76" d="M391,455.719h5.8a1.16,1.16,0,0,0,1.16-1.16V451H391Z" transform="translate(-332.151 -416.111)" fill="#666"/>
      <path id="Path_77" data-name="Path 77" d="M31,454.559a1.16,1.16,0,0,0,1.16,1.16h5.8V451H31Z" transform="translate(0 -416.111)" fill="#666"/>
      <path id="Path_78" data-name="Path 78" d="M242.16,393.321a1.16,1.16,0,1,0-1.16-1.16A1.162,1.162,0,0,0,242.16,393.321Z" transform="translate(-193.755 -360.753)" fill="#666"/>
      <path id="Path_79" data-name="Path 79" d="M196.028,286.923a3.5,3.5,0,0,0,3.492,3.41h2.295a3.5,3.5,0,0,0,3.492-3.41A10.422,10.422,0,0,1,196.028,286.923Z" transform="translate(-152.262 -264.727)" fill="#666"/>
      <path id="Path_80" data-name="Path 80" d="M207.54,123.115,208.88,121h-8.625l1.339,2.115A11.8,11.8,0,0,1,207.54,123.115Z" transform="translate(-156.162 -111.64)" fill="#666"/>
      <path id="Path_81" data-name="Path 81" d="M167.245,5.8a5.808,5.808,0,0,0-5.8-5.8H156.8A5.808,5.808,0,0,0,151,5.8V7.04h16.245Z" transform="translate(-110.717)" fill="#666"/>
      <path id="Path_82" data-name="Path 82" d="M159.123,132.6a8.132,8.132,0,0,0,8.123-8.123V121h-1.063l-2.6,4.1a1.16,1.16,0,0,1-1.347.48,9.445,9.445,0,0,0-6.229,0,1.161,1.161,0,0,1-1.347-.48l-2.6-4.1H151v3.481A8.132,8.132,0,0,0,159.123,132.6Z" transform="translate(-110.717 -111.64)" fill="#666"/>
    </g>
  </g>
</svg>
