<svg xmlns="http://www.w3.org/2000/svg" width="32.964" height="39.607" viewBox="0 0 32.964 39.607">
  <g id="_7" data-name="7" transform="translate(-364 -2840)">
    <g id="automobile-with-wrench" transform="translate(333.735 2840)">
      <path id="Path_65" data-name="Path 65" d="M108.457,21.645c2.648,0,8.874-3.187,8.874-10.823,0-1.065-.026-2.094-.114-3.066A9.175,9.175,0,0,0,115.7,2.848C114.453,1.08,112.264,0,108.457,0s-6,1.079-7.248,2.847A9.173,9.173,0,0,0,99.7,7.757c-.088.972-.114,2-.114,3.066C99.583,18.458,105.809,21.645,108.457,21.645Zm2.9-17.68L110.707,5.6a7.333,7.333,0,0,0-4.5,0l-.647-1.633A9.088,9.088,0,0,1,111.353,3.965Zm-10.45,5.2c.1.224.537,1.083,1.209,1.164.773.093,2.056-2.737,6.345-2.744s5.572,2.837,6.345,2.744c.672-.081,1.107-.94,1.209-1.164.021.548.028,1.1.028,1.656a9.65,9.65,0,0,1-3.031,7.328,7.75,7.75,0,0,1-4.551,2.2,7.75,7.75,0,0,1-4.551-2.2,9.649,9.649,0,0,1-3.031-7.328C100.875,10.269,100.882,9.715,100.9,9.167Z" transform="translate(-61.71)" fill="#666"/>
      <path id="Path_66" data-name="Path 66" d="M63.221,200.15c-.453-2.817-1.386-6.446-3.256-7.735-1.278-.881-5.735-3.262-7.638-4.279l-.032-.017a.622.622,0,0,0-.677.059,8.086,8.086,0,0,1-3.246,1.568.622.622,0,0,0-.446.386l-1.178,3.105-1.178-3.105a.621.621,0,0,0-.446-.386,8.086,8.086,0,0,1-3.246-1.568.622.622,0,0,0-.677-.059c-1.881,1-6.392,3.435-7.664,4.292-2.154,1.451-3.1,6.7-3.262,7.739a.625.625,0,0,0,.028.307c.046.129.758,1.974,4.32,3.457a1.77,1.77,0,0,1,.787-.565,1.756,1.756,0,0,1-.957-2.5,5.205,5.205,0,0,1,8.9-.4h6.8a5.215,5.215,0,0,1,4.321-2.311h0a5.215,5.215,0,0,1,4.57,2.7,1.756,1.756,0,0,1-.951,2.5,1.767,1.767,0,0,1,.8.573c3.553-1.483,4.264-3.324,4.31-3.453A.626.626,0,0,0,63.221,200.15Z" transform="translate(0 -167.405)" fill="#666"/>
      <path id="Path_67" data-name="Path 67" d="M102.159,299.063h0l-3.275,0a6.186,6.186,0,0,1,0-2.869l3.274,0a.221.221,0,0,0,.194-.328,3.671,3.671,0,0,0-6.628.408H87.084a3.668,3.668,0,0,0-6.63-.4.221.221,0,0,0,.194.327h0l3.275-.005a6.186,6.186,0,0,1,0,2.869l-3.274,0a.221.221,0,0,0-.193.328,3.673,3.673,0,0,0,3.218,1.9h.005a3.671,3.671,0,0,0,3.4-2.312h8.634A3.677,3.677,0,0,0,99.13,301.3h.005a3.674,3.674,0,0,0,3.218-1.914.221.221,0,0,0-.194-.327Z" transform="translate(-44.657 -261.697)" fill="#666"/>
    </g>
  </g>
</svg>
