<svg xmlns="http://www.w3.org/2000/svg" xmlns:xlink="http://www.w3.org/1999/xlink" width="107.018" height="106.999" viewBox="0 0 107.018 106.999">
  <defs>
    <radialGradient id="radial-gradient" cx="0.535" cy="0.454" r="0.55" gradientTransform="translate(0)" gradientUnits="objectBoundingBox">
      <stop offset="0" stop-color="#f5e100"/>
      <stop offset="0.295" stop-color="#f5dd00"/>
      <stop offset="0.576" stop-color="#f5d101"/>
      <stop offset="0.73" stop-color="#f6c802"/>
      <stop offset="0.779" stop-color="#f6ca0a"/>
      <stop offset="0.858" stop-color="#f7d121"/>
      <stop offset="0.955" stop-color="#f9dc46"/>
      <stop offset="1" stop-color="#fbe35a"/>
    </radialGradient>
    <clipPath id="clip-path">
      <path id="Path_143" data-name="Path 143" d="M1811.2,344.737c0-.044,0-.092,0-.135.008-.242.069-1.716.353-3.891.024-.193.052-.385.078-.579.039-.273.081-.558.128-.85a53.244,53.244,0,0,1,7.1-19.523l.025-.042q.585-.963,1.211-1.9l0-.006a53.508,53.508,0,0,1,6.855-8.318,46.8,46.8,0,0,1,3.956-3.546c.864-.7,1.756-1.37,2.665-2.017l.133-.1.12-.08c.156-.109.311-.22.469-.328.587-.409,1.221-.828,1.912-1.26l0,0,.076-.047c.332-.206.68-.416,1.043-.629.163-.1.328-.19.493-.284.141-.08.272-.159.417-.24.112-.063.224-.123.334-.184a53.765,53.765,0,0,1,6.555-3.088c.586-.235,1.038-.4,1.3-.5l.407-.143.4-.143.06-.02.089-.031c.2-.067.462-.154.66-.22l.093-.03.094-.03.451-.144c.179-.056.42-.128.6-.183l.519-.153.292-.083.086-.024.1-.029.166-.047.577-.155c.144-.038.324-.083.485-.124s.306-.076.459-.115l.021,0,.292-.07c.178-.043.391-.091.558-.13l.393-.086q.266-.059.533-.115l.1-.019c.134-.029.269-.056.4-.082l.239-.045.292-.057.047-.008.1-.019.164-.03.436-.076.278-.049h.006c.16-.027.32-.051.48-.076l.414-.066c.074-.012.165-.024.247-.036l.374-.052.358-.049c.2-.026.4-.05.6-.073l.548-.064c.061-.006.121-.014.181-.022l.041,0c.155-.016.328-.032.506-.048.251-.024.5-.044.75-.064l.513-.044c.195-.013.382-.021.574-.033s.4-.026.6-.036c.127-.006.246-.008.371-.013l.333-.018c.086,0,.171,0,.256,0l.284-.008q1.612-.041,3.222.015c.24.008.47.017.685.026.24.011.479.022.72.037l.423.025c.351.024.694.053,1.033.082l.358.032c.492.048.967.1,1.42.158.219.026.439.055.659.083l-.048-.007.057.01.135.019c.357.05.7.1,1.01.149.256.041.512.081.767.125.58.1,1.04.186,1.348.248,1.549.308,3.081.688,4.6,1.131.906.253,1.7.508,2.7.865a53.519,53.519,0,0,1,11.8,5.87l.007,0,0,0q.554.365,1.1.745l.142.1q.943.662,1.861,1.37c.05.038.1.074.149.113l.056.039.048.038c.024.02.048.037.073.056l.056.044c.168.131.334.265.5.4q.509.408.979.807c.177.149.355.3.531.452.359.311.7.613,1.019.9l.048.041.041.041.225.206c1.667,1.537,2.682,2.656,2.747,2.729.517.551,1.027,1.131,1.531,1.725.359.415.725.851,1.1,1.317l.081.093.056.075c.747.932,1.539,1.987,2.4,3.26l.021.027.019.029.037.054c.391.581.8,1.234,1.2,1.918.355.586.7,1.168,1.013,1.668l1.01,1.965c.334.637.65,1.254.936,1.826a38.338,38.338,0,0,1,1.685,4.067l0,.011,0,.016c.476,1.329.932,2.743,1.322,4.113l.016.048c0,.018.009.039.015.057a39.912,39.912,0,0,1,1.088,4.76,48.567,48.567,0,0,1,.851,8.619,51.1,51.1,0,0,1-.536,8.479,53.507,53.507,0,0,1-4.968,16.012,34.8,34.8,0,0,1-1.678,3.17c-.723,1.243-1.519,2.475-2.372,3.686-.1.147-.192.291-.3.448a35.092,35.092,0,0,1-3.118,3.994c-.765.829-1.757,1.961-2.55,2.761s-1.855,1.83-2.719,2.562h0c-.944.828-1.337,1.17-2.224,1.841q-1.618,1.292-3.286,2.406l-.013.008c-.362.241-.722.477-1.084.7-.428.27-.853.53-1.232.747-.2.116-.484.278-.807.459l-.148.084c-.335.188-.725.4-1.161.634l-.286.151c-1.291.68-2.921,1.482-4.723,2.214-.393.16-.929.376-1.573.619l-.538.208-.946.334c-.2.067-.462.154-.66.22l-.236.075-.047.016-.355.113c-.179.056-.419.128-.6.183l-.59.173-.051.014a49.992,49.992,0,0,1-6.6,1.444l-.2.032c-.177.026-.385.055-.593.083l-.06.008-.516.07-1.176.137c-.53.055-1.239.11-1.77.156-.491.041-1.088.07-1.655.092h-.025c-.286.011-.566.02-.816.026-.736.018-1.721,0-2.458,0-.755,0-1.761-.08-2.515-.115-1.6-.141-3.742-.385-5.333-.641a41.031,41.031,0,0,1-4.1-.871c-.307-.085-.628-.179-.956-.277-.957-.273-1.946-.572-2.771-.814l-.968-.361q-1.164-.4-2.3-.859l-.385-.143c-.895-.339-1.97-.849-2.942-1.329q-.621-.3-1.234-.618a36.716,36.716,0,0,1-3.469-1.971l-.1-.069c-.917-.575-1.821-1.177-2.708-1.814l-.569-.387-.968-.761q-.388-.3-.774-.611l-1.467-1.155a34.6,34.6,0,0,1-3.048-2.811l-.077-.072-.145-.156c-.769-.788-1.647-1.726-2.665-2.877-.023-.024-.045-.054-.068-.079l0,0a47.417,47.417,0,0,1-4.481-6.069l-.047-.074q-.623-.993-1.259-2.113l-.009-.014.006.01q-.268-.476-.538-.975c-.25-.458-.493-.909-.689-1.317-.064-.131-.131-.271-.2-.409q-.524-1.063-1.029-2.212c-.469-1.044-.914-2.107-1.228-3.036l0-.007c-.576-1.563-1.1-3.224-1.563-4.976-.294-1.068-.549-2.142-.72-3.137q-.323-1.622-.552-3.335c-.038-.261-.069-.512-.1-.761q-.272-2.311-.343-4.777c0-.055-.007-.118-.01-.172V348.7C1811.116,347.41,1811.131,346.089,1811.2,344.737Z" transform="translate(-1811.131 -293.992)" fill="none"/>
    </clipPath>
  </defs>
  <g id="Group_657" data-name="Group 657" transform="translate(-1811.13 -293.992)">
    <g id="Group_142" data-name="Group 142" transform="translate(1811.13 293.992)">
      <path id="Path_138" data-name="Path 138" d="M1918.079,344.737c0-.044,0-.092,0-.135-.008-.242-.069-1.716-.353-3.891-.025-.193-.052-.385-.079-.579-.038-.273-.081-.558-.126-.85a53.27,53.27,0,0,0-7.1-19.523l-.026-.042q-.586-.963-1.21-1.9l0-.006a53.405,53.405,0,0,0-6.854-8.318,46.813,46.813,0,0,0-3.957-3.546c-.864-.7-1.754-1.37-2.665-2.017l-.133-.1-.121-.08c-.156-.109-.31-.22-.467-.328-.588-.409-1.222-.828-1.913-1.26l0,0-.078-.047q-.5-.31-1.042-.629c-.164-.1-.329-.19-.493-.284-.14-.08-.271-.159-.418-.24-.112-.063-.222-.123-.334-.184a53.775,53.775,0,0,0-6.554-3.088c-.586-.235-1.038-.4-1.3-.5l-.407-.143-.4-.143-.059-.02-.09-.031c-.2-.067-.463-.154-.661-.22l-.093-.03-.094-.03-.449-.144c-.18-.056-.42-.128-.6-.183l-.519-.153-.292-.083-.087-.024-.1-.029-.166-.047-.576-.155-.484-.124c-.154-.039-.307-.076-.461-.115l-.022,0-.291-.07c-.179-.043-.39-.091-.557-.13l-.393-.086c-.178-.039-.355-.078-.535-.115l-.1-.019c-.135-.029-.269-.056-.4-.082l-.238-.045-.292-.057-.048-.008-.1-.019-.163-.03-.434-.076-.28-.049h0c-.16-.027-.32-.051-.479-.076l-.414-.066c-.075-.012-.165-.024-.248-.036l-.372-.052-.359-.049c-.2-.026-.4-.05-.6-.073l-.548-.064c-.06-.006-.121-.014-.18-.022l-.04,0c-.156-.016-.33-.032-.507-.048-.249-.024-.5-.044-.749-.064l-.514-.044c-.194-.013-.383-.021-.574-.033s-.4-.026-.6-.036c-.125-.006-.246-.008-.37-.013l-.334-.018c-.086,0-.169,0-.255,0l-.284-.008q-1.612-.041-3.222.015c-.241.008-.47.017-.685.026-.24.011-.479.022-.719.037l-.425.025c-.35.024-.693.053-1.032.082l-.358.032c-.493.048-.968.1-1.421.158-.22.026-.439.055-.658.083l.046-.007-.057.01-.135.019c-.356.05-.694.1-1.011.149-.255.041-.51.081-.766.125-.58.1-1.04.186-1.35.248-1.548.308-3.08.688-4.6,1.131-.906.253-1.705.508-2.7.865a53.513,53.513,0,0,0-11.8,5.87l-.008,0,0,0q-.551.365-1.1.745l-.143.1q-.944.662-1.862,1.37l-.149.113-.055.039-.048.038c-.025.02-.049.037-.074.056l-.055.044c-.168.131-.335.265-.5.4-.34.272-.665.542-.979.807-.178.149-.354.3-.531.452-.359.311-.7.613-1.018.9l-.048.041-.041.041c-.076.068-.151.137-.225.206-1.668,1.537-2.684,2.656-2.748,2.729-.516.551-1.025,1.131-1.531,1.725-.358.415-.726.851-1.1,1.317l-.08.093-.055.075c-.748.932-1.539,1.987-2.4,3.26l-.02.027-.019.029-.036.054c-.392.581-.8,1.234-1.205,1.918-.354.586-.7,1.168-1.013,1.668l-1.008,1.965c-.335.637-.65,1.254-.937,1.826a38.687,38.687,0,0,0-1.686,4.067l0,.011,0,.016c-.477,1.329-.932,2.743-1.323,4.113l-.015.048c-.005.018-.01.039-.014.057a39.949,39.949,0,0,0-1.09,4.76,48.707,48.707,0,0,0-.851,8.619,53.2,53.2,0,0,0,2.39,16.685,51.9,51.9,0,0,0,3.115,7.806,34.2,34.2,0,0,0,1.679,3.17c.722,1.243,1.519,2.475,2.372,3.686l.294.448a35.3,35.3,0,0,0,3.119,3.994c.763.829,1.755,1.961,2.55,2.761s1.855,1.83,2.718,2.562h0c.943.828,1.338,1.17,2.224,1.841q1.62,1.292,3.287,2.406l.013.008c.36.241.722.477,1.083.7.428.27.854.53,1.231.747.2.116.486.278.808.459l.146.084c.337.188.727.4,1.162.634l.286.151c1.291.68,2.921,1.482,4.724,2.214.393.16.928.376,1.572.619l.54.208.945.334c.2.067.463.154.661.22l.235.075.047.016.355.113c.179.056.42.128.6.183l.589.173.052.014a50,50,0,0,0,6.6,1.444l.2.032c.178.026.385.055.594.083l.058.008.517.07,1.175.137c.531.055,1.239.11,1.77.156.492.041,1.09.07,1.656.092h.024c.286.011.567.02.816.026.737.018,1.721,0,2.458,0,.755,0,1.761-.08,2.517-.115,1.605-.141,3.741-.385,5.331-.641a41.16,41.16,0,0,0,4.106-.871c.305-.085.626-.179.956-.277.956-.273,1.945-.572,2.771-.814l.966-.361q1.163-.4,2.3-.859l.384-.143c.9-.339,1.972-.849,2.943-1.329q.621-.3,1.234-.618a36.616,36.616,0,0,0,3.47-1.971l.1-.069c.917-.575,1.821-1.177,2.708-1.814l.568-.387.968-.761q.39-.3.774-.611l1.468-1.155a34.452,34.452,0,0,0,3.048-2.811l.076-.072.144-.156c.77-.788,1.647-1.726,2.666-2.877.022-.024.045-.054.067-.079l0,0a47.393,47.393,0,0,0,4.481-6.069l.048-.074q.621-.993,1.258-2.113l.008-.014-.006.01c.179-.317.359-.642.538-.975.252-.458.492-.909.69-1.317l.2-.409q.527-1.063,1.031-2.212c.468-1.044.913-2.107,1.228-3.036l0-.007c.576-1.563,1.1-3.224,1.564-4.976.293-1.068.548-2.142.721-3.137q.322-1.622.55-3.335c.039-.261.07-.512.1-.761q.272-2.311.341-4.777c0-.055.008-.118.011-.172V348.7C1918.163,347.41,1918.148,346.089,1918.079,344.737Z" transform="translate(-1811.13 -293.992)" fill="url(#radial-gradient)"/>
      <path id="Path_139" data-name="Path 139" d="M1833.491,314.063a2.745,2.745,0,0,1,2.755,2.684c.8,5.393-5.656,12.245-9.085,9.648s.387-11.939,6.33-12.331m39.343,4.658c-6.238-.969-9.067,6.232-5.685,10.773s9.971,2.607,10.687-3.125c.444-3.543-1.8-6.973-5-7.648M1847.5,333.958c-12.01-.693-16.306,14.447-9.077,22.639,7.174,8.13,17.939,1.3,18.717-9.036.52-6.923-3.714-12.9-9.639-13.6m-4.313-32.615c-4.02-.012-9.616,3.91-8.547,4.8a.674.674,0,0,0,.444.112,3.126,3.126,0,0,0,1.489-.585,8.6,8.6,0,0,1,4.247-1.671,2,2,0,0,1,1.911,1.216c.106.226.355.754,1.53.5,1.217-.261,2.368-1.338,2.281-2.132a3.245,3.245,0,0,0-3.355-2.239m29.987,3.551c-3.225-.59-8.168.762-6.866,2.846a2.029,2.029,0,0,0,1.123.822l.095.026a2.31,2.31,0,0,0,1.6-.138,5.865,5.865,0,0,1,3.85-.641,6.3,6.3,0,0,1,3.6,2.592,2.538,2.538,0,0,0,1.5.947,1.362,1.362,0,0,0,1.723-.919c.345-1.68-3.554-4.939-6.62-5.535" transform="translate(-1808.282 -292.571)" fill="#463313"/>
      <g id="Group_141" data-name="Group 141" transform="translate(0)">
        <g id="Group_140" data-name="Group 140" clip-path="url(#clip-path)">
          <path id="Path_140" data-name="Path 140" d="M1830.122,358.376c-3.208,4.793-3.192,11.8-.433,17.1,15.4,29.557,67.615,20.5,72.412-12.159.761-5.186-1.961-9.544-7.27-10.344-2.961-.448-5.967.191-8.9.806a67.627,67.627,0,0,1-15.947,1.352c-6.686-.253-13.474-1.428-20.13-2.129-5.635-.593-11.8-1.063-16.5,2.107A11.906,11.906,0,0,0,1830.122,358.376Z" transform="translate(-1807.935 -282.67)" fill="#d6830f" style="mix-blend-mode: multiply;isolation: isolate"/>
          <g id="Group_139" data-name="Group 139" transform="translate(30.402 1.374)" style="mix-blend-mode: screen;isolation: isolate">
            <path id="Path_141" data-name="Path 141" d="M1840.191,299.8q-.43.39-.827.789a9.434,9.434,0,0,0-2.538,3.806,4.372,4.372,0,0,0,.864,4.316c1.375,1.369,3.579,1.3,5.513,1.143l10.753-.883c8.029-.66,13.64-8.776,4.9-13.083C1855.4,294.191,1845.081,295.346,1840.191,299.8Z" transform="translate(-1836.609 -295.143)" fill="#f9e684"/>
            <path id="Path_142" data-name="Path 142" d="M1876.676,322.153a6.151,6.151,0,0,0-.007,2.754c.5,2.171,2.1,3.895,3.637,5.508l8.74,9.182a5.537,5.537,0,0,0,2.966,1.984c2.119.311,3.762-1.816,4.586-3.793,3.835-9.208-1.774-25.451-14.334-21.536A8.419,8.419,0,0,0,1876.676,322.153Z" transform="translate(-1828.896 -291.179)" fill="#f9e684" opacity="0.7" style="mix-blend-mode: screen;isolation: isolate"/>
          </g>
        </g>
      </g>
    </g>
  </g>
</svg>
